<?xml version="1.0" encoding="UTF-8" standalone="no"?>
<!DOCTYPE svg PUBLIC "-//W3C//DTD SVG 1.1//EN"
 "http://www.w3.org/Graphics/SVG/1.1/DTD/svg11.dtd">
<!-- Generated by graphviz version 2.38.0 (20140413.2041)
 -->
<!-- Title: G Pages: 1 -->
<svg width="568pt" height="250pt"
 viewBox="0.00 0.00 568.09 250.00" xmlns="http://www.w3.org/2000/svg" xmlns:xlink="http://www.w3.org/1999/xlink">
<g id="graph0" class="graph" transform="scale(1 1) rotate(0) translate(4 246)">
<title>G</title>
<polygon fill="white" stroke="none" points="-4,4 -4,-246 564.091,-246 564.091,4 -4,4"/>
<g id="clust1" class="cluster"><title>cluster_Global</title>
<path fill="none" stroke="gray" d="M152.091,-8C152.091,-8 540.091,-8 540.091,-8 546.091,-8 552.091,-14 552.091,-20 552.091,-20 552.091,-222 552.091,-222 552.091,-228 546.091,-234 540.091,-234 540.091,-234 152.091,-234 152.091,-234 146.091,-234 140.091,-228 140.091,-222 140.091,-222 140.091,-20 140.091,-20 140.091,-14 146.091,-8 152.091,-8"/>
<text text-anchor="middle" x="346.091" y="-221.2" font-family="Times New Roman,serif" font-size="11.00" fill="gray">Global</text>
</g>
<g id="clust2" class="cluster"><title>cluster_\MrCrankHank</title>
<path fill="none" stroke="gray" d="M160.091,-16C160.091,-16 532.091,-16 532.091,-16 538.091,-16 544.091,-22 544.091,-28 544.091,-28 544.091,-194 544.091,-194 544.091,-200 538.091,-206 532.091,-206 532.091,-206 160.091,-206 160.091,-206 154.091,-206 148.091,-200 148.091,-194 148.091,-194 148.091,-28 148.091,-28 148.091,-22 154.091,-16 160.091,-16"/>
<text text-anchor="middle" x="346.091" y="-193.2" font-family="Times New Roman,serif" font-size="11.00" fill="gray">MrCrankHank</text>
</g>
<g id="clust3" class="cluster"><title>cluster_\MrCrankHank\LvmParser</title>
<path fill="none" stroke="gray" d="M168.091,-24C168.091,-24 524.091,-24 524.091,-24 530.091,-24 536.091,-30 536.091,-36 536.091,-36 536.091,-166 536.091,-166 536.091,-172 530.091,-178 524.091,-178 524.091,-178 168.091,-178 168.091,-178 162.091,-178 156.091,-172 156.091,-166 156.091,-166 156.091,-36 156.091,-36 156.091,-30 162.091,-24 168.091,-24"/>
<text text-anchor="middle" x="346.091" y="-165.2" font-family="Times New Roman,serif" font-size="11.00" fill="gray">LvmParser</text>
</g>
<g id="clust4" class="cluster"><title>cluster_\MrCrankHank\LvmParser\Exceptions</title>
<path fill="none" stroke="gray" d="M176.091,-78C176.091,-78 516.091,-78 516.091,-78 522.091,-78 528.091,-84 528.091,-90 528.091,-90 528.091,-138 528.091,-138 528.091,-144 522.091,-150 516.091,-150 516.091,-150 176.091,-150 176.091,-150 170.091,-150 164.091,-144 164.091,-138 164.091,-138 164.091,-90 164.091,-90 164.091,-84 170.091,-78 176.091,-78"/>
<text text-anchor="middle" x="346.091" y="-137.2" font-family="Times New Roman,serif" font-size="11.00" fill="gray">Exceptions</text>
</g>
<!-- \\MrCrankHank\\LvmParser\\Exceptions\\BaseException -->
<g id="node1" class="node"><title>\\MrCrankHank\\LvmParser\\Exceptions\\BaseException</title>
<polygon fill="none" stroke="black" points="276.091,-122 172.091,-122 172.091,-86 276.091,-86 276.091,-122"/>
<text text-anchor="middle" x="224.091" y="-101.2" font-family="Courier,monospace" font-size="11.00">BaseException</text>
</g>
<!-- \\Exception -->
<g id="node4" class="node"><title>\\Exception</title>
<ellipse fill="none" stroke="black" cx="50.0456" cy="-104" rx="50.0912" ry="18"/>
<text text-anchor="middle" x="50.0456" y="-100.3" font-family="Times New Roman,serif" font-size="14.00" fill="gray">\Exception</text>
</g>
<!-- \\MrCrankHank\\LvmParser\\Exceptions\\BaseException&#45;&gt;\\Exception -->
<g id="edge1" class="edge"><title>\\MrCrankHank\\LvmParser\\Exceptions\\BaseException&#45;&gt;\\Exception</title>
<path fill="none" stroke="black" d="M171.938,-104C152.622,-104 130.483,-104 110.473,-104"/>
<polygon fill="none" stroke="black" points="110.229,-100.5 100.229,-104 110.229,-107.5 110.229,-100.5"/>
</g>
<!-- \\MrCrankHank\\LvmParser\\Exceptions\\MethodNotFoundException -->
<g id="node2" class="node"><title>\\MrCrankHank\\LvmParser\\Exceptions\\MethodNotFoundException</title>
<polygon fill="none" stroke="black" points="520.091,-122 348.091,-122 348.091,-86 520.091,-86 520.091,-122"/>
<text text-anchor="middle" x="434.091" y="-101.2" font-family="Courier,monospace" font-size="11.00">MethodNotFoundException</text>
</g>
<!-- \\MrCrankHank\\LvmParser\\Exceptions\\MethodNotFoundException&#45;&gt;\\MrCrankHank\\LvmParser\\Exceptions\\BaseException -->
<g id="edge2" class="edge"><title>\\MrCrankHank\\LvmParser\\Exceptions\\MethodNotFoundException&#45;&gt;\\MrCrankHank\\LvmParser\\Exceptions\\BaseException</title>
<path fill="none" stroke="black" d="M347.889,-104C327.253,-104 305.595,-104 286.313,-104"/>
<polygon fill="none" stroke="black" points="286.166,-100.5 276.166,-104 286.166,-107.5 286.166,-100.5"/>
</g>
<!-- \\MrCrankHank\\LvmParser\\Parser -->
<g id="node3" class="node"><title>\\MrCrankHank\\LvmParser\\Parser</title>
<polygon fill="none" stroke="black" points="462.591,-68 405.591,-68 405.591,-32 462.591,-32 462.591,-68"/>
<text text-anchor="middle" x="434.091" y="-47.2" font-family="Courier,monospace" font-size="11.00">Parser</text>
</g>
</g>
</svg>
